<svg width="14.000000" height="14.000000" viewBox="0 0 14 14" fill="none" xmlns="http://www.w3.org/2000/svg" xmlns:xlink="http://www.w3.org/1999/xlink">
	<desc>
			Created with Pixso.
	</desc>
	<defs/>
	<path id="Vector" d="M12.6 0L1.4 0C0.629997 0 0 0.629883 0 1.3999L0 12.6001C0 13.3701 0.629997 14 1.4 14L12.6 14C13.37 14 14 13.3701 14 12.6001L14 1.3999C14 0.629883 13.37 0 12.6 0ZM4.2 11.8999L2.1 11.8999L2.1 5.6001L4.2 5.6001L4.2 11.8999ZM3.15 4.41016C2.45 4.41016 1.89 3.8501 1.89 3.1499C1.89 2.4502 2.45 1.89014 3.15 1.89014C3.85 1.89014 4.41 2.4502 4.41 3.1499C4.41 3.8501 3.85 4.41016 3.15 4.41016ZM11.9 11.8999L9.8 11.8999L9.8 8.18994C9.8 7.62988 9.31 7.14014 8.75 7.14014C8.19 7.14014 7.7 7.62988 7.7 8.18994L7.7 11.8999L5.6 11.8999L5.6 5.6001L7.7 5.6001L7.7 6.43994C8.05 5.87988 8.82 5.45996 9.45 5.45996C10.78 5.45996 11.9 6.58008 11.9 7.91016L11.9 11.8999Z" fill="#FFFFFF" fill-opacity="1.000000" fill-rule="nonzero"/>
</svg>
