<svg width="16.000000" height="16.000000" viewBox="0 0 16 16" fill="none" xmlns="http://www.w3.org/2000/svg" xmlns:xlink="http://www.w3.org/1999/xlink">
	<desc>
			Created with Pixso.
	</desc>
	<defs>
		<clipPath id="clip10_42">
			<rect id="instagram" width="16.000000" height="16.000000" fill="white" fill-opacity="0"/>
		</clipPath>
	</defs>
	<rect id="instagram" width="16.000000" height="16.000000" fill="#FFFFFF" fill-opacity="0"/>
	<g clip-path="url(#clip10_42)">
		<path id="Vector" d="M15.9843 4.7041C15.9469 3.854 15.8094 3.26953 15.6124 2.76318C15.4093 2.22559 15.0967 1.74414 14.6872 1.34424C14.2871 0.9375 13.8026 0.62207 13.2713 0.421875C12.7619 0.225098 12.1805 0.0874023 11.3304 0.050293C10.4739 0.00927734 10.202 0 8.02966 0C5.85736 0 5.58546 0.00927734 4.73215 0.046875C3.882 0.0844727 3.29755 0.222168 2.79121 0.418945C2.25351 0.62207 1.77222 0.93457 1.37212 1.34424C0.96579 1.74414 0.650177 2.22852 0.450058 2.75977C0.253128 3.26953 0.115646 3.85059 0.0781708 4.70068C0.0375061 5.55713 0.0281067 5.8291 0.0281067 8.00146C0.0281067 10.1738 0.0375061 10.4458 0.0749969 11.2993C0.112473 12.1494 0.250076 12.7339 0.447006 13.2402C0.650177 13.7778 0.96579 14.2588 1.37212 14.6592C1.77222 15.0654 2.25668 15.3813 2.78804 15.5811C3.29755 15.7783 3.87883 15.9155 4.7291 15.9531C5.58229 15.9907 5.85431 16 8.02661 16C10.1989 16 10.4708 15.9907 11.3241 15.9531C12.1743 15.9155 12.7587 15.7783 13.2651 15.5811C14.3403 15.1655 15.1905 14.3154 15.6062 13.2402C15.803 12.7305 15.9406 12.1494 15.9781 11.2993C16.0156 10.4458 16.025 10.1738 16.025 8.00146C16.025 5.8291 16.0218 5.55713 15.9843 4.7041ZM14.5435 11.2363C14.5091 12.0181 14.3778 12.4399 14.2684 12.7212C13.9996 13.4185 13.4464 13.9717 12.7493 14.2402C12.468 14.3496 12.043 14.481 11.2647 14.5151C10.4208 14.5527 10.1677 14.562 8.03284 14.562C5.89803 14.562 5.64175 14.5527 4.80089 14.5151C4.01949 14.481 3.59753 14.3496 3.31622 14.2402C2.96936 14.1123 2.65363 13.9092 2.39734 13.6431C2.13167 13.3838 1.9285 13.0713 1.80031 12.7246C1.6909 12.4429 1.55966 12.0181 1.52534 11.2397C1.48775 10.396 1.47847 10.1426 1.47847 8.00781C1.47847 5.87305 1.48775 5.6167 1.52534 4.77588C1.55966 3.99463 1.6909 3.57275 1.80031 3.2915C1.9285 2.94434 2.13167 2.62891 2.40051 2.37207C2.65985 2.10645 2.97241 1.90332 3.3194 1.77539C3.60071 1.66602 4.02583 1.53467 4.80406 1.50049C5.64798 1.46289 5.9012 1.45361 8.03589 1.45361C10.1739 1.45361 10.427 1.46289 11.2679 1.50049C12.0493 1.53467 12.4712 1.66602 12.7525 1.77539C13.0994 1.90332 13.4151 2.10645 13.6714 2.37207C13.9371 2.63184 14.1402 2.94434 14.2684 3.2915C14.3778 3.57275 14.5091 3.99756 14.5435 4.77588C14.581 5.61963 14.5904 5.87305 14.5904 8.00781C14.5904 10.1426 14.581 10.3926 14.5435 11.2363Z" fill="#FFFFFF" fill-opacity="1.000000" fill-rule="nonzero"/>
		<path id="Vector" d="M8.02966 3.8916C5.76056 3.8916 3.91949 5.73242 3.91949 8.00195C3.91949 10.271 5.76056 12.1118 8.02966 12.1118C10.2989 12.1118 12.1398 10.271 12.1398 8.00195C12.1398 5.73242 10.2989 3.8916 8.02966 3.8916ZM8.02966 10.668C6.55759 10.668 5.36349 9.47412 5.36349 8.00195C5.36349 6.52979 6.55759 5.33545 8.02966 5.33545C9.50188 5.33545 10.6958 6.52979 10.6958 8.00195C10.6958 9.47412 9.50188 10.668 8.02966 10.668Z" fill="#FFFFFF" fill-opacity="1.000000" fill-rule="nonzero"/>
		<path id="Vector" d="M13.262 3.72852C13.262 4.2583 12.8324 4.68799 12.3024 4.68799C11.7725 4.68799 11.3428 4.2583 11.3428 3.72852C11.3428 3.19873 11.7725 2.76904 12.3024 2.76904C12.8324 2.76904 13.262 3.19873 13.262 3.72852Z" fill="#FFFFFF" fill-opacity="1.000000" fill-rule="nonzero"/>
	</g>
</svg>
