<svg width="20.000000" height="16.250000" viewBox="0 0 20 16.25" fill="none" xmlns="http://www.w3.org/2000/svg" xmlns:xlink="http://www.w3.org/1999/xlink">
	<desc>
			Created with Pixso.
	</desc>
	<defs/>
	<path id="Vector" d="M20 1.92383C19.2562 2.25 18.4637 2.46631 17.6375 2.57129C18.4875 2.06396 19.1362 1.26611 19.4413 0.305176C18.6488 0.777344 17.7738 1.11133 16.8412 1.29736C16.0887 0.496094 15.0163 0 13.8463 0C11.5762 0 9.74875 1.84229 9.74875 4.10107C9.74875 4.42627 9.77625 4.73877 9.84375 5.03613C6.435 4.87012 3.41875 3.23633 1.3925 0.747559C1.03875 1.36133 0.831253 2.06396 0.831253 2.81982C0.831253 4.24023 1.5625 5.49854 2.6525 6.22754C1.99375 6.21484 1.3475 6.02393 0.800003 5.72266C0.800003 5.73486 0.800003 5.75146 0.800003 5.76758C0.800003 7.75977 2.22125 9.41504 4.085 9.79639C3.75125 9.8877 3.3875 9.93115 3.01 9.93115C2.7475 9.93115 2.4825 9.91602 2.23375 9.86133C2.765 11.4849 4.2725 12.6787 6.065 12.7173C4.67 13.8086 2.89875 14.4663 0.981247 14.4663C0.644997 14.4663 0.322502 14.4512 0 14.4102C1.81625 15.5811 3.96875 16.25 6.29 16.25C13.835 16.25 17.96 10 17.96 4.58252C17.96 4.40137 17.9538 4.22607 17.945 4.05273C18.7588 3.4751 19.4425 2.75391 20 1.92383Z" fill="#FFFFFF" fill-opacity="1.000000" fill-rule="nonzero"/>
</svg>
